<svg width="37" height="37" viewBox="0 0 37 37" fill="none" xmlns="http://www.w3.org/2000/svg">
<g clip-path="url(#clip0_1_272)">
<path d="M19.6422 27.9881H18.1246V36.0158H19.6422V27.9881Z" fill="white"/>
<path d="M9.26934 17.7737H1.35278V19.3512H9.26934V17.7737Z" fill="white"/>
<path d="M36.414 17.7737H28.3254V19.3512H36.414V17.7737Z" fill="white"/>
<path d="M27.8561 17.0553L25.8535 16.5555C25.8535 16.5555 25.697 15.8839 25.6188 15.6497C25.5406 15.4154 25.2433 14.7594 25.2433 14.7594L26.1664 12.8696L24.3046 11.011L22.3176 12.0262C22.3176 12.0262 21.77 11.7451 21.5666 11.667C21.3945 11.6045 20.7844 11.4171 20.7844 11.4171L20.2211 9.38675H17.4832L16.7635 11.3546C16.7635 11.3546 16.1377 11.5264 15.9343 11.6202C15.7309 11.7139 15.1207 12.0262 15.1207 12.0262L13.3372 11.1672L11.4754 13.0258L12.3672 14.9156C12.3672 14.9156 12.0386 15.5716 11.9604 15.7902C11.8665 16.0401 11.6631 16.8366 11.6631 16.8366L9.72308 17.1022V17.477H9.73873V19.6479H9.72308V19.8822L11.7257 20.4601C11.7257 20.4601 11.8978 21.1941 11.976 21.4284C12.0542 21.6627 12.3672 22.2562 12.3672 22.2562L11.3658 23.9742L13.3685 26.0045L15.1207 24.9269C15.1207 24.9269 15.7153 25.2705 15.903 25.3486C16.1377 25.4423 16.8417 25.6297 16.8417 25.6297L17.5458 27.5039H20.2368L20.7374 25.6609C20.7374 25.6609 21.3789 25.411 21.5979 25.3173C21.817 25.2236 22.4271 24.88 22.4271 24.88L24.461 25.9108L26.2133 23.8805L25.1651 22.1312C25.1651 22.1312 25.5718 21.4909 25.6814 21.2566C25.7909 21.0223 26.0099 20.382 26.0099 20.382L27.8874 19.9134V17.7581L27.8561 17.0553ZM27.3867 19.4449L25.478 19.8353C25.478 19.8353 25.2589 20.6162 25.1651 20.8661C25.0712 21.116 24.4297 21.975 24.4297 21.975L25.478 23.8648L24.2263 25.2549L22.3958 24.2553C22.3958 24.2553 21.7074 24.6145 21.4728 24.7238C21.2068 24.8488 20.4245 25.0674 20.4245 25.0674L19.8456 27.0041H17.9213L17.3424 25.1299C17.3424 25.1299 16.5288 24.8644 16.2472 24.7707C15.9656 24.677 15.152 24.2241 15.152 24.2241L13.6188 25.2549L12.1168 23.8336L13.0712 22.1C13.0712 22.1 12.7426 21.4596 12.6331 21.1473C12.5393 20.8661 12.3202 19.8666 12.3202 19.8666L10.2237 19.4136V17.5707L12.242 17.1646C12.242 17.1646 12.3828 16.2744 12.461 16.0401C12.5705 15.6965 12.993 14.7126 12.993 14.7126L12.1325 13.0726L13.3841 11.792L15.2459 12.7134C15.2459 12.7134 15.9343 12.3386 16.169 12.2293C16.5132 12.1043 16.8574 11.995 17.2172 11.9169L17.89 9.93339H19.8143L20.315 11.9325C20.315 11.9325 21.066 12.1668 21.3007 12.2761C21.5353 12.3854 22.1768 12.7603 22.1768 12.7603L24.1638 11.8232L25.478 13.1507L24.6018 14.7126C24.6018 14.7126 24.8991 15.4779 24.9773 15.7277C25.0555 15.9776 25.2902 16.9928 25.2902 16.9928L27.3867 17.5238V19.4449Z" fill="white"/>
<path d="M19.7048 0.968536H18.062V8.91821H19.7048V0.968536Z" fill="white"/>
<path d="M25.2902 16.9772C25.2902 16.9772 25.0555 15.9777 24.9773 15.7122C24.8991 15.4466 24.6018 14.697 24.6018 14.697L25.478 13.1351L24.1638 11.8076L22.1768 12.7447C22.1768 12.7447 21.5353 12.3699 21.3007 12.2605C21.066 12.1512 20.315 11.9169 20.315 11.9169L19.8143 9.93341H17.8587L17.1859 11.9013C16.8261 11.9794 16.4819 12.0887 16.1377 12.2137C15.903 12.323 15.2146 12.6978 15.2146 12.6978L13.3528 11.7764L12.1012 13.0571L12.9617 14.7126C12.9617 14.7126 12.5393 15.6965 12.4297 16.0401C12.3515 16.29 12.2107 17.1646 12.2107 17.1646L10.1924 17.5707V19.4137L12.3046 19.8666C12.3046 19.8666 12.5236 20.8662 12.6175 21.1473C12.727 21.4597 13.0555 22.1 13.0555 22.1L12.1012 23.8336L13.6031 25.2549L15.1364 24.2241C15.1364 24.2241 15.9499 24.6614 16.2316 24.7707C16.5132 24.88 17.3267 25.1299 17.3267 25.1299L17.9056 27.0041H19.83L20.4089 25.0675C20.4089 25.0675 21.1911 24.8488 21.4571 24.7239C21.6918 24.6145 22.3802 24.2553 22.3802 24.2553L24.2107 25.2549L25.4623 23.8649L24.4297 21.9751C24.4297 21.9751 25.0555 21.1161 25.1651 20.8662C25.2746 20.6163 25.478 19.8354 25.478 19.8354L27.3867 19.4449V17.5082L25.2902 16.9772ZM18.7974 21.897C16.9825 21.897 15.5119 20.4289 15.5119 18.6171C15.5119 16.8054 16.9825 15.3373 18.7974 15.3373C20.6123 15.3373 22.0829 16.8054 22.0829 18.6171C22.0829 20.4289 20.6123 21.897 18.7974 21.897Z" fill="#3287B0"/>
<path d="M33.0503 14.6345C33.0503 14.6345 32.5966 13.0258 32.3932 12.5104C32.1742 11.9638 31.345 10.3863 31.345 10.3863L33.3163 6.90347L30.5158 4.15466L26.8704 6.09132C26.8704 6.09132 25.3528 5.24794 24.8208 5.01367C24.3202 4.79501 22.7713 4.29523 22.7713 4.29523L21.7387 0.5H16.0281L15.0112 4.31085C15.0112 4.31085 13.4623 4.81063 12.9616 5.02928C12.4297 5.26356 10.8965 6.09132 10.8965 6.09132L7.25109 4.15466L4.45057 6.90347L6.43753 10.402C6.43753 10.402 5.60832 11.9794 5.38929 12.526C5.1859 13.0414 4.73218 14.6501 4.73218 14.6501L0.883423 15.6965V21.3816L4.63831 22.3811C4.63831 22.3811 5.13896 23.9273 5.358 24.4271C5.59268 24.9581 6.43753 26.4731 6.43753 26.4731L4.48186 30.1278L7.23544 32.9234L10.7244 30.9555C10.7244 30.9555 12.3045 31.7833 12.8521 32.002C13.3684 32.205 14.9799 32.6579 14.9799 32.6579L16.0594 36.5H21.7231L22.7869 32.6735C22.7869 32.6735 24.3984 32.2206 24.9147 32.0176C25.4623 31.7989 27.0425 30.9712 27.0425 30.9712L30.547 32.9547L33.3006 30.159L31.3606 26.52C31.3606 26.52 32.2055 25.005 32.4401 24.474C32.6592 23.9742 33.1598 22.428 33.1598 22.428L36.9147 21.4284V15.7121L33.0503 14.6345ZM18.062 0.968547H19.7048V8.91822H18.062V0.968547ZM9.26934 19.3512H1.35278V17.7738H9.26934V19.3512ZM18.1246 36.0158V27.9881H19.6422V36.0158H18.1246ZM27.856 19.9447L25.9786 20.4132C25.9786 20.4132 25.7439 21.0692 25.65 21.2879C25.5562 21.5065 25.1337 22.1625 25.1337 22.1625L26.182 23.9117L24.4297 25.9421L22.3958 24.9113C22.3958 24.9113 21.7856 25.2549 21.5666 25.3486C21.3476 25.4423 20.7061 25.6922 20.7061 25.6922L20.2055 27.5351H17.5145L16.8104 25.661C16.8104 25.661 16.1064 25.4735 15.8717 25.3798C15.6839 25.3017 15.0894 24.9581 15.0894 24.9581L13.3371 26.0358L11.3345 24.0054L12.3358 22.2562C12.3358 22.2562 12.0229 21.6471 11.9447 21.4284C11.8665 21.2098 11.6944 20.4601 11.6944 20.4601L9.69177 19.8822V17.1022L11.6318 16.8367C11.6318 16.8367 11.8352 16.0557 11.9291 15.7902C12.0073 15.5716 12.3358 14.9156 12.3358 14.9156L11.444 13.0258L13.3058 11.1672L15.1207 12.0419C15.1207 12.0419 15.7309 11.7139 15.9343 11.6202C16.1377 11.5265 16.7791 11.339 16.7791 11.339L17.4988 9.37115H20.2367L20.8 11.4015C20.8 11.4015 21.3945 11.5733 21.5822 11.6514C21.7856 11.7295 22.3489 12.0106 22.3489 12.0106L24.3515 11.0111L26.2133 12.8696L25.2902 14.7594C25.2902 14.7594 25.5875 15.431 25.6657 15.6497C25.7439 15.8683 25.9004 16.5555 25.9004 16.5555L27.903 17.0553L27.856 19.9447ZM36.4141 19.3512H28.3254V17.7738H36.4141V19.3512Z" fill="#8F95A4"/>
</g>
<defs>
<clipPath id="clip0_1_272">
<rect width="36" height="36" fill="white" transform="translate(0.883423 0.5)"/>
</clipPath>
</defs>
</svg>
