<svg width="32" height="32" viewBox="0 0 32 32" fill="none" xmlns="http://www.w3.org/2000/svg">
<path d="M29.3335 8.6665H21.3335" stroke="#7698AA" stroke-width="1.5" stroke-miterlimit="10" stroke-linecap="round" stroke-linejoin="round"/>
<path d="M7.99984 8.6665H2.6665" stroke="#7698AA" stroke-width="1.5" stroke-miterlimit="10" stroke-linecap="round" stroke-linejoin="round"/>
<path d="M13.3332 13.3333C15.9105 13.3333 17.9998 11.244 17.9998 8.66667C17.9998 6.08933 15.9105 4 13.3332 4C10.7558 4 8.6665 6.08933 8.6665 8.66667C8.6665 11.244 10.7558 13.3333 13.3332 13.3333Z" stroke="#7698AA" stroke-width="1.5" stroke-miterlimit="10" stroke-linecap="round" stroke-linejoin="round"/>
<path d="M29.3333 23.3335H24" stroke="#7698AA" stroke-width="1.5" stroke-miterlimit="10" stroke-linecap="round" stroke-linejoin="round"/>
<path d="M10.6665 23.3335H2.6665" stroke="#7698AA" stroke-width="1.5" stroke-miterlimit="10" stroke-linecap="round" stroke-linejoin="round"/>
<path d="M18.6667 27.9998C21.244 27.9998 23.3333 25.9105 23.3333 23.3332C23.3333 20.7558 21.244 18.6665 18.6667 18.6665C16.0893 18.6665 14 20.7558 14 23.3332C14 25.9105 16.0893 27.9998 18.6667 27.9998Z" stroke="#7698AA" stroke-width="1.5" stroke-miterlimit="10" stroke-linecap="round" stroke-linejoin="round"/>
</svg>
